<svg width="160" height="125" viewBox="0 0 130 143" fill="none" xmlns="http://www.w3.org/2000/svg">
<path d="M117 65.715V26C117 18.85 111.215 13 104 13H76.83C74.1 5.46 66.95 0 58.5 0C50.05 0 42.9 5.46 40.17 13H13C5.85 13 0 18.85 0 26V117C0 124.215 5.85 130 13 130H52.715C60.905 138.06 72.085 143 84.5 143C109.655 143 130 122.655 130 97.5C130 85.085 125.06 73.905 117 65.715ZM58.5 13C62.075 13 65 15.925 65 19.5C65 23.075 62.075 26 58.5 26C54.925 26 52 23.075 52 19.5C52 15.925 54.925 13 58.5 13ZM13 117V26H26V39H91V26H104V56.42C98.085 53.625 91.52 52 84.5 52H26V65H52.65C48.75 68.705 45.76 73.125 43.42 78H26V91H39.52C39.195 93.145 39 95.29 39 97.5C39 104.52 40.625 111.085 43.42 117H13ZM84.5 130C66.56 130 52 115.44 52 97.5C52 79.56 66.56 65 84.5 65C102.44 65 117 79.56 117 97.5C117 115.44 102.44 130 84.5 130ZM87.75 99.125L106.34 110.11L101.465 118.04L78 104V71.5H87.75V99.125Z" fill="#555555"/>
</svg>
