<svg width="160" height="125" viewBox="0 0 132 119" fill="none" xmlns="http://www.w3.org/2000/svg">
<path d="M13.2 0C5.874 0 0 5.88389 0 13.2222V39.6667C0 47.005 5.874 52.8889 13.2 52.8889H39.6C46.926 52.8889 52.8 47.005 52.8 39.6667V13.2222C52.8 5.88389 46.926 0 39.6 0M40.92 9.91667L47.916 16.8583L21.582 42.9722L4.884 26.1139L11.946 19.1722L21.648 29.0228M13.2 66.1111C5.874 66.1111 0 71.995 0 79.3333V105.778C0 113.116 5.874 119 13.2 119H39.6C46.926 119 52.8 113.116 52.8 105.778V79.3333C52.8 71.995 46.926 66.1111 39.6 66.1111M13.2 79.3333H39.6V105.778H13.2M66 13.2222H132V26.4444H66M66 105.778V92.5556H132V105.778M66 52.8889H132V66.1111H66V52.8889Z" fill="#555555"/>
</svg>
