<svg width="144" height="144" viewBox="0 0 144 144" fill="none" xmlns="http://www.w3.org/2000/svg">
<path d="M120 72C120 84.7304 114.943 96.9394 105.941 105.941C96.9394 114.943 84.7304 120 72 120C59.2696 120 47.0606 114.943 38.0589 105.941C29.0571 96.9394 24 84.7304 24 72C24 59.2696 29.0571 47.0606 38.0589 38.0589C47.0606 29.0571 59.2696 24 72 24C76.56 24 81 24.66 85.2 25.86L94.62 16.44C87.66 13.56 80.04 12 72 12C64.1207 12 56.3185 13.5519 49.039 16.5672C41.7595 19.5825 35.1451 24.0021 29.5736 29.5736C18.3214 40.8258 12 56.087 12 72C12 87.913 18.3214 103.174 29.5736 114.426C35.1451 119.998 41.7595 124.417 49.039 127.433C56.3185 130.448 64.1207 132 72 132C87.913 132 103.174 125.679 114.426 114.426C125.679 103.174 132 87.913 132 72M47.46 60.48L39 69L66 96L126 36L117.54 27.48L66 79.02L47.46 60.48Z" fill="#2D2926"/>
</svg>
